<?xml version="1.0" encoding="UTF-8"?>
<svg id="Layer_1" xmlns="http://www.w3.org/2000/svg" xmlns:xlink="http://www.w3.org/1999/xlink" viewBox="0 0 430 932">
  <defs>
    <style>
      .cls-1 {
        fill: url(#linear-gradient-2);
      }

      .cls-2 {
        opacity: .37;
        stroke: #08d9d6;
        stroke-miterlimit: 10;
        stroke-width: 4px;
      }

      .cls-2, .cls-3 {
        fill: none;
      }

      .cls-4 {
        fill: #08d9d6;
      }

      .cls-5 {
        fill: #eaeaea;
      }

      .cls-6 {
        fill: url(#linear-gradient);
      }

      .cls-7 {
        clip-path: url(#clippath);
      }
    </style>
    <clipPath id="clippath">
      <rect class="cls-3" width="430" height="932"/>
    </clipPath>
    <linearGradient id="linear-gradient" x1="614.97" y1="679.7" x2="190.63" y2="452.98" gradientUnits="userSpaceOnUse">
      <stop offset="0" stop-color="#00b4db"/>
      <stop offset="1" stop-color="#0083b0"/>
    </linearGradient>
    <linearGradient id="linear-gradient-2" x1="-9.96" y1="16.39" x2="314.81" y2="684.3" xlink:href="#linear-gradient"/>
  </defs>
  <g class="cls-7">
    <g>
      <rect class="cls-6" width="430" height="932"/>
      <path class="cls-2" d="M219.99,8.2c47.65,3.37,96.16,15,134.52,43.47s64.7,76.24,58.12,123.56c-6.01,43.24-36.77,78.09-61.17,114.28-45.65,67.71-71.91,148.34-74.92,229.94-1.82,49.5,4.62,99.94-7.17,148.04-21.96,89.59-116.01,135.88-202.06,108.25-46.01-14.78-85.1-49.84-104.77-93.98C-130.68,472.57-57.11,221.4-43.35-7.22,43.65-3.93,133.14,2.05,219.99,8.2Z"/>
      <path class="cls-2" d="M219.99,30.2c47.65,3.37,96.16,15,134.52,43.47s64.7,76.24,58.12,123.56c-6.01,43.24-36.77,78.09-61.17,114.28-45.65,67.71-71.91,148.34-74.92,229.94-1.82,49.5,4.62,99.94-7.17,148.04-21.96,89.59-116.01,135.88-202.06,108.25-46.01-14.78-85.1-49.84-104.77-93.98C-130.68,494.57-57.11,243.4-43.35,14.78c87,3.29,176.49,9.28,263.34,15.42Z"/>
      <path class="cls-2" d="M203.99,39.2c47.65,3.37,96.16,15,134.52,43.47s64.7,76.24,58.12,123.56c-6.01,43.24-36.77,78.09-61.17,114.28-45.65,67.71-71.91,148.34-74.92,229.94-1.82,49.5,4.62,99.94-7.17,148.04-21.96,89.59-116.01,135.88-202.06,108.25-46.01-14.78-85.1-49.84-104.77-93.98-93.22-209.2-19.65-460.38-5.89-689,87,3.29,176.49,9.28,263.34,15.42Z"/>
      <path class="cls-1" d="M203.99-8.8c47.65,3.37,96.16,15,134.52,43.47s64.7,76.24,58.12,123.56c-6.01,43.24-36.77,78.09-61.17,114.28-45.65,67.71-71.91,148.34-74.92,229.94-1.82,49.5,4.62,99.94-7.17,148.04-21.96,89.59-116.01,135.88-202.06,108.25-46.01-14.78-85.1-49.84-104.77-93.98-93.22-209.2-19.65-460.38-5.89-689C27.65-20.93,117.14-14.95,203.99-8.8Z"/>
    </g>
  </g>
  <g>
    <g>
      <path class="cls-5" d="M189.32,476.58v12.17c-.96.17-1.84.25-2.64.25-4.72,0-8.65-1.55-11.79-4.65-3.14-3.1-4.72-6.99-4.72-11.67s1.59-8.41,4.76-11.57c3.18-3.16,7.04-4.75,11.59-4.75,5.07,0,9.07,1.48,12,4.45,2.92,2.97,4.39,7.02,4.39,12.15v15.38h-11.76v-14.53c0-1.66-.4-2.98-1.21-3.96-.81-.98-1.89-1.48-3.25-1.48-1.24,0-2.31.45-3.21,1.35-.9.9-1.35,1.97-1.35,3.21,0,1.3.41,2.37,1.23,3.21.82.84,1.86,1.26,3.11,1.26,1.03,0,1.98-.27,2.86-.82Z"/>
      <path class="cls-5" d="M220.82,445.42v25.69c0,4.17,1.5,6.26,4.5,6.26,1.28,0,2.36-.43,3.25-1.3.89-.87,1.34-1.92,1.34-3.16s-.42-2.35-1.26-3.22c-.84-.87-1.87-1.3-3.08-1.3-.86,0-1.84.38-2.96,1.13v-12.95c1.38-.13,2.43-.19,3.14-.19,4.42,0,8.21,1.59,11.37,4.78,3.15,3.19,4.73,7.02,4.73,11.51s-1.6,8.46-4.81,11.6c-3.21,3.14-7.15,4.72-11.82,4.72-2.35,0-4.64-.51-6.87-1.54s-4.07-2.41-5.52-4.15c-2.52-3.02-3.77-6.93-3.77-11.73v-26.13h11.76Z"/>
      <path class="cls-5" d="M258.77,456.99v31.35h-11.76v-31.35h11.76ZM252.92,443c1.59,0,2.97.56,4.13,1.68,1.16,1.12,1.75,2.45,1.75,3.98,0,1.63-.55,2.98-1.65,4.02-1.1,1.05-2.51,1.57-4.23,1.57s-3.13-.52-4.23-1.57c-1.1-1.05-1.65-2.39-1.65-4.02,0-1.53.58-2.86,1.75-3.98,1.16-1.12,2.54-1.68,4.13-1.68Z"/>
      <path class="cls-5" d="M285,445.42h11.76v26.13c0,4.8-1.26,8.71-3.77,11.73-1.45,1.74-3.29,3.12-5.52,4.15-2.23,1.03-4.52,1.54-6.87,1.54-4.67,0-8.62-1.57-11.82-4.72-3.21-3.14-4.81-7-4.81-11.57s1.59-8.25,4.78-11.48c3.19-3.23,6.96-4.84,11.32-4.84.69,0,1.74.06,3.14.19v12.95c-.96-.75-1.93-1.13-2.89-1.13-1.22,0-2.26.45-3.13,1.34-.87.89-1.3,1.97-1.3,3.22s.45,2.26,1.35,3.13c.9.87,1.98,1.3,3.24,1.3,3.02,0,4.53-2.09,4.53-6.26v-25.69Z"/>
    </g>
    <path class="cls-4" d="M149.56,460.76v11.32h-3.55v16.26h-6.29c-3.57,0-6.47-2.9-6.47-6.47v-36.45h6.74c3.33,0,6.03,2.7,6.03,6.03v9.32h3.55ZM164.5,451.58v36.76h-6.27c-3.59,0-6.5-2.91-6.5-6.5v-36.42h6.6c3.4,0,6.16,2.76,6.16,6.16Z"/>
  </g>
</svg>